<svg width="50" height="54" viewBox="0 0 50 54" fill="none" xmlns="http://www.w3.org/2000/svg">
<path d="M26.5281 7.48564C25.2211 2.20148 19.2793 -1.40334 14.0363 0.527854C11.5801 1.43256 9.50371 3.33857 8.39287 5.71054C7.84394 6.88265 7.53714 8.13469 7.49373 9.42861C7.44424 10.9037 7.85977 12.7722 6.62491 13.8722C6.02365 14.4078 6.67552 15.2595 7.35462 15.1258C8.76956 14.847 10.1845 14.5683 11.5994 14.2896L10.6501 13.5664C10.7752 19.8511 12.035 26.332 16.2232 31.237C19.9606 35.6141 26.0257 37.9685 31.6246 36.022L30.6752 35.2988C31.3435 40.8309 33.736 46.3104 37.7949 50.2077C39.5829 51.9245 41.8695 53.313 44.417 53.317C46.6237 53.3204 48.7421 52.3207 49.8989 50.4082C50.0608 50.1404 50.0273 49.7133 49.7816 49.4993C42.8591 43.4701 42.7656 33.5996 40.3386 25.4121C38.0474 17.6829 33.0472 11.0502 26.1971 6.78436C25.3753 6.27261 24.6214 7.56979 25.44 8.07957C32.7354 12.6227 37.4327 19.7441 39.4876 28.0114C41.4424 35.8759 42.2017 44.882 48.721 50.56L48.6037 49.6511C47.5536 51.3873 45.4074 52.0775 43.4594 51.7428C41.1386 51.344 39.2382 49.6906 37.741 47.9707C34.6635 44.4354 32.7362 39.9426 32.1752 35.2988C32.1214 34.853 31.7347 34.3987 31.2259 34.5756C25.9576 36.4072 20.4353 34.0589 17.0371 29.8809C13.319 25.3096 12.2643 19.3034 12.1501 13.5664C12.1398 13.0518 11.681 12.7486 11.2007 12.8432C9.78575 13.1219 8.37082 13.4006 6.95588 13.6793L7.68559 14.9329C9.44678 13.364 8.82634 10.9865 9.02457 8.90866C9.26922 6.34423 10.8913 3.98979 13.0639 2.65435C17.7035 -0.197516 23.8097 2.74142 25.0817 7.88438C25.3134 8.82096 26.7603 8.42426 26.5281 7.48564Z" fill="#2E3192"/>
<path d="M19.357 33.9017C19.1297 36.266 18.9023 38.6303 18.675 40.9947C18.6361 41.3985 19.0475 41.7447 19.425 41.7447C19.8629 41.7447 20.136 41.3996 20.175 40.9947C20.4023 38.6303 20.6297 36.266 20.857 33.9017C20.8958 33.4979 20.4845 33.1517 20.107 33.1517C19.6691 33.1517 19.3959 33.4967 19.357 33.9017Z" fill="#2E3192"/>
<path d="M21.7531 35.0149C21.5686 36.9334 21.3841 38.852 21.1996 40.7705C21.1608 41.1743 21.5721 41.5205 21.9496 41.5205C22.3875 41.5205 22.6607 41.1754 22.6996 40.7705C22.8841 38.852 23.0686 36.9334 23.2531 35.0149C23.2919 34.6112 22.8806 34.2649 22.5031 34.2649C22.0652 34.2649 21.792 34.61 21.7531 35.0149Z" fill="#2E3192"/>
<path d="M0.724204 41.501L25.665 41.9883C26.6306 42.0071 26.6306 40.5071 25.665 40.4883L0.724204 40.001C-0.241416 39.9822 -0.241386 41.4822 0.724204 41.501Z" fill="#2E3192"/>
<path d="M0.724204 41.501L25.665 41.9883C26.6306 42.0071 26.6306 40.5071 25.665 40.4883L0.724204 40.001C-0.241416 39.9822 -0.241386 41.4822 0.724204 41.501Z" fill="#2E3192"/>
<path d="M14.9686 8.6073C15.9338 8.6073 15.9354 7.1073 14.9686 7.1073C14.0034 7.1073 14.0018 8.6073 14.9686 8.6073Z" fill="#2E3192"/>
<path d="M14.9686 8.6073C15.9338 8.6073 15.9354 7.1073 14.9686 7.1073C14.0034 7.1073 14.0018 8.6073 14.9686 8.6073Z" fill="#2E3192"/>
</svg>
