<svg width="112" height="54" viewBox="0 0 112 54" fill="none" xmlns="http://www.w3.org/2000/svg">
<path d="M26.5281 7.48564C25.2211 2.20148 19.2793 -1.40334 14.0363 0.527854C11.5801 1.43256 9.50371 3.33857 8.39287 5.71054C7.84394 6.88265 7.53714 8.13469 7.49373 9.42861C7.44424 10.9037 7.85977 12.7722 6.62491 13.8722C6.02365 14.4078 6.67552 15.2595 7.35462 15.1258C8.76956 14.847 10.1845 14.5683 11.5994 14.2896L10.6501 13.5664C10.7752 19.8511 12.035 26.332 16.2232 31.237C19.9606 35.6141 26.0257 37.9685 31.6246 36.022L30.6752 35.2988C31.3435 40.8309 33.736 46.3104 37.7949 50.2077C39.5829 51.9245 41.8695 53.313 44.417 53.317C46.6237 53.3204 48.7421 52.3207 49.8989 50.4082C50.0608 50.1404 50.0273 49.7133 49.7816 49.4993C42.8591 43.4701 42.7656 33.5996 40.3386 25.4121C38.0474 17.6829 33.0472 11.0502 26.1971 6.78436C25.3753 6.27261 24.6214 7.56979 25.44 8.07957C32.7354 12.6227 37.4327 19.7441 39.4876 28.0114C41.4424 35.8759 42.2017 44.882 48.721 50.56L48.6037 49.6511C47.5536 51.3873 45.4074 52.0775 43.4594 51.7428C41.1386 51.344 39.2382 49.6906 37.741 47.9707C34.6635 44.4354 32.7362 39.9426 32.1752 35.2988C32.1214 34.853 31.7347 34.3987 31.2259 34.5756C25.9576 36.4072 20.4353 34.0589 17.0371 29.8809C13.319 25.3096 12.2643 19.3034 12.1501 13.5664C12.1398 13.0518 11.681 12.7486 11.2007 12.8432C9.78575 13.1219 8.37082 13.4006 6.95588 13.6793L7.68559 14.9329C9.44678 13.364 8.82634 10.9865 9.02457 8.90866C9.26922 6.34423 10.8913 3.98979 13.0639 2.65435C17.7035 -0.197516 23.8097 2.74142 25.0817 7.88438C25.3134 8.82096 26.7603 8.42426 26.5281 7.48564Z" fill="#2E3192"/>
<path d="M19.357 33.9017C19.1297 36.266 18.9023 38.6303 18.675 40.9947C18.6361 41.3985 19.0475 41.7447 19.425 41.7447C19.8629 41.7447 20.136 41.3996 20.175 40.9947C20.4023 38.6303 20.6297 36.266 20.857 33.9017C20.8958 33.4979 20.4845 33.1517 20.107 33.1517C19.6691 33.1517 19.3959 33.4967 19.357 33.9017Z" fill="#2E3192"/>
<path d="M21.7531 35.0149C21.5686 36.9334 21.3841 38.852 21.1996 40.7705C21.1608 41.1743 21.5721 41.5205 21.9496 41.5205C22.3875 41.5205 22.6607 41.1754 22.6996 40.7705C22.8841 38.852 23.0686 36.9334 23.2531 35.0149C23.2919 34.6112 22.8806 34.2649 22.5031 34.2649C22.0652 34.2649 21.792 34.61 21.7531 35.0149Z" fill="#2E3192"/>
<path d="M0.724204 41.501L25.665 41.9883C26.6306 42.0071 26.6306 40.5071 25.665 40.4883L0.724204 40.001C-0.241416 39.9822 -0.241386 41.4822 0.724204 41.501Z" fill="#2E3192"/>
<path d="M0.724204 41.501L25.665 41.9883C26.6306 42.0071 26.6306 40.5071 25.665 40.4883L0.724204 40.001C-0.241416 39.9822 -0.241386 41.4822 0.724204 41.501Z" fill="#2E3192"/>
<path d="M14.9686 8.6073C15.9338 8.6073 15.9354 7.1073 14.9686 7.1073C14.0034 7.1073 14.0018 8.6073 14.9686 8.6073Z" fill="#2E3192"/>
<path d="M14.9686 8.6073C15.9338 8.6073 15.9354 7.1073 14.9686 7.1073C14.0034 7.1073 14.0018 8.6073 14.9686 8.6073Z" fill="#2E3192"/>
<path d="M46.816 15V6.984H48.368V7.672C48.56 7.39467 48.768 7.192 48.992 7.064C49.2267 6.936 49.488 6.872 49.776 6.872C50.1173 6.872 50.4213 6.95733 50.688 7.128C50.9653 7.288 51.1787 7.52267 51.328 7.832C51.5413 7.50133 51.7867 7.26133 52.064 7.112C52.352 6.952 52.672 6.872 53.024 6.872C53.5467 6.872 53.9733 7.064 54.304 7.448C54.6453 7.832 54.816 8.33333 54.816 8.952V15H53.28V9.432C53.28 9.048 53.2 8.74933 53.04 8.536C52.88 8.312 52.6507 8.2 52.352 8.2C52.2027 8.2 52.064 8.232 51.936 8.296C51.808 8.36 51.6853 8.472 51.568 8.632C51.5893 8.696 51.6 8.76 51.6 8.824C51.6 8.888 51.6 8.95733 51.6 9.032V15H50.064V9.432C50.064 9.048 49.9787 8.74933 49.808 8.536C49.648 8.312 49.4187 8.2 49.12 8.2C48.992 8.2 48.864 8.22667 48.736 8.28C48.608 8.33333 48.4853 8.43467 48.368 8.584V15H46.816Z" fill="#2E3192"/>
<path d="M60.6017 15.16C59.8231 15.16 59.1191 14.9787 58.4897 14.616C57.8604 14.2427 57.3591 13.7413 56.9857 13.112C56.6231 12.4827 56.4417 11.7787 56.4417 11C56.4417 10.2107 56.6124 9.50667 56.9538 8.888C57.3058 8.26933 57.7804 7.77867 58.3778 7.416C58.9858 7.04267 59.6631 6.856 60.4098 6.856C61.1884 6.856 61.8764 7.03733 62.4738 7.4C63.0818 7.76267 63.5564 8.25333 63.8978 8.872C64.2498 9.49067 64.4258 10.2 64.4258 11V11.432H58.2178C58.2711 11.8693 58.4098 12.2587 58.6338 12.6C58.8684 12.9307 59.1617 13.192 59.5137 13.384C59.8764 13.576 60.2711 13.672 60.6978 13.672C61.1138 13.672 61.4978 13.592 61.8498 13.432C62.2124 13.272 62.5111 13.048 62.7458 12.76L63.9458 13.832C63.4871 14.2907 62.9804 14.6267 62.4258 14.84C61.8711 15.0533 61.2631 15.16 60.6017 15.16ZM58.2337 10.296H62.6978C62.6337 9.90133 62.4951 9.56 62.2817 9.272C62.0791 8.97333 61.8177 8.744 61.4977 8.584C61.1884 8.41333 60.8364 8.328 60.4417 8.328C60.0684 8.328 59.7271 8.408 59.4178 8.568C59.1191 8.728 58.8684 8.95733 58.6657 9.256C58.4631 9.544 58.3191 9.89067 58.2337 10.296Z" fill="#2E3192"/>
<path d="M71.8755 15.16C70.9155 15.16 70.1795 14.9307 69.6675 14.472C69.1662 14.0133 68.9155 13.336 68.9155 12.44V4.792H66.0355V3.368H70.7235V12.248C70.7235 12.728 70.8355 13.0747 71.0595 13.288C71.2942 13.5013 71.6515 13.608 72.1315 13.608C72.3875 13.608 72.6435 13.5813 72.8995 13.528C73.1555 13.4747 73.4382 13.3893 73.7475 13.272V14.792C73.5022 14.888 73.2088 14.9733 72.8675 15.048C72.5262 15.1227 72.1955 15.16 71.8755 15.16Z" fill="#2E3192"/>
<path d="M76.0133 15V13.576H77.9973V8.424H76.0133V6.984H79.8053V8.888C80.0719 8.216 80.4346 7.70933 80.8932 7.368C81.3626 7.02667 81.8959 6.856 82.4932 6.856C82.7386 6.856 82.9466 6.87733 83.1172 6.92C83.2879 6.952 83.4906 7.01067 83.7253 7.096V8.744C83.4906 8.648 83.2399 8.57867 82.9733 8.536C82.7173 8.48267 82.4666 8.456 82.2213 8.456C81.6986 8.456 81.2239 8.584 80.7972 8.84C80.3706 9.08533 80.0399 9.43733 79.8053 9.896V13.576H81.9173V15H76.0133Z" fill="#2E3192"/>
<path d="M89.175 15.16C88.4177 15.16 87.735 14.9787 87.127 14.616C86.519 14.2427 86.039 13.7467 85.687 13.128C85.335 12.4987 85.159 11.7893 85.159 11C85.159 10.2213 85.335 9.52267 85.687 8.904C86.039 8.27467 86.519 7.77867 87.127 7.416C87.735 7.04267 88.4177 6.856 89.175 6.856C89.9323 6.856 90.615 7.04267 91.223 7.416C91.831 7.77867 92.311 8.27467 92.663 8.904C93.015 9.52267 93.191 10.2213 93.191 11C93.191 11.7893 93.015 12.4987 92.663 13.128C92.311 13.7467 91.831 14.2427 91.223 14.616C90.6257 14.9787 89.943 15.16 89.175 15.16ZM89.175 13.608C89.6123 13.608 89.9963 13.496 90.327 13.272C90.6683 13.048 90.935 12.7387 91.127 12.344C91.3297 11.9493 91.431 11.5013 91.431 11C91.431 10.4987 91.3297 10.056 91.127 9.672C90.935 9.27733 90.6683 8.968 90.327 8.744C89.9963 8.52 89.6123 8.408 89.175 8.408C88.7377 8.408 88.3483 8.52533 88.007 8.76C87.6763 8.984 87.4097 9.29333 87.207 9.688C87.015 10.072 86.919 10.5093 86.919 11C86.919 11.5013 87.015 11.9493 87.207 12.344C87.4097 12.7387 87.6763 13.048 88.007 13.272C88.3483 13.496 88.7377 13.608 89.175 13.608Z" fill="#2E3192"/>
<path d="M50.336 36.112C49.664 36.112 49.0507 35.9307 48.496 35.568C47.952 35.2053 47.5147 34.7147 47.184 34.096C46.864 33.4667 46.704 32.768 46.704 32C46.704 31.2213 46.8693 30.5227 47.2 29.904C47.5307 29.2853 47.9733 28.7947 48.528 28.432C49.0827 28.0587 49.696 27.872 50.368 27.872C50.8053 27.872 51.2053 27.9573 51.568 28.128C51.9413 28.2987 52.272 28.5387 52.56 28.848V24.512L54.368 24.208V36H52.608V35.072C52.32 35.4133 51.984 35.6747 51.6 35.856C51.216 36.0267 50.7947 36.112 50.336 36.112ZM50.768 34.624C51.1307 34.624 51.4667 34.5547 51.776 34.416C52.0853 34.2773 52.3467 34.08 52.56 33.824V30.176C52.3467 29.92 52.08 29.7227 51.76 29.584C51.4507 29.4347 51.12 29.36 50.768 29.36C50.32 29.36 49.9253 29.472 49.584 29.696C49.2427 29.92 48.976 30.2293 48.784 30.624C48.592 31.0187 48.496 31.4773 48.496 32C48.496 32.5013 48.592 32.9547 48.784 33.36C48.976 33.7547 49.2427 34.064 49.584 34.288C49.9253 34.512 50.32 34.624 50.768 34.624Z" fill="#2E3192"/>
<path d="M60.6017 36.16C59.8231 36.16 59.1191 35.9787 58.4897 35.616C57.8604 35.2427 57.3591 34.7413 56.9857 34.112C56.6231 33.4827 56.4417 32.7787 56.4417 32C56.4417 31.2107 56.6124 30.5067 56.9538 29.888C57.3058 29.2693 57.7804 28.7787 58.3778 28.416C58.9858 28.0427 59.6631 27.856 60.4098 27.856C61.1884 27.856 61.8764 28.0373 62.4738 28.4C63.0818 28.7627 63.5564 29.2533 63.8978 29.872C64.2498 30.4907 64.4258 31.2 64.4258 32V32.432H58.2178C58.2711 32.8693 58.4098 33.2587 58.6338 33.6C58.8684 33.9307 59.1617 34.192 59.5137 34.384C59.8764 34.576 60.2711 34.672 60.6978 34.672C61.1138 34.672 61.4978 34.592 61.8498 34.432C62.2124 34.272 62.5111 34.048 62.7458 33.76L63.9458 34.832C63.4871 35.2907 62.9804 35.6267 62.4258 35.84C61.8711 36.0533 61.2631 36.16 60.6017 36.16ZM58.2337 31.296H62.6978C62.6337 30.9013 62.4951 30.56 62.2817 30.272C62.0791 29.9733 61.8177 29.744 61.4977 29.584C61.1884 29.4133 60.8364 29.328 60.4417 29.328C60.0684 29.328 59.7271 29.408 59.4178 29.568C59.1191 29.728 58.8684 29.9573 58.6657 30.256C58.4631 30.544 58.3191 30.8907 58.2337 31.296Z" fill="#2E3192"/>
<path d="M69.9235 36.16C69.1768 36.16 68.4835 36.064 67.8435 35.872C67.2142 35.6693 66.6755 35.3813 66.2275 35.008L67.1075 33.808C67.6622 34.16 68.1582 34.4053 68.5955 34.544C69.0328 34.6827 69.4702 34.752 69.9075 34.752C70.4942 34.752 70.9582 34.656 71.2995 34.464C71.6515 34.272 71.8275 34.0213 71.8275 33.712C71.8275 33.4667 71.7315 33.2747 71.5395 33.136C71.3475 32.9973 71.0968 32.896 70.7875 32.832C70.4782 32.768 70.1315 32.7093 69.7475 32.656C69.3742 32.6027 68.9955 32.5333 68.6115 32.448C68.2382 32.3627 67.8915 32.2453 67.5715 32.096C67.2622 31.936 67.0115 31.7173 66.8195 31.44C66.6275 31.152 66.5315 30.7787 66.5315 30.32C66.5315 29.808 66.6702 29.3707 66.9475 29.008C67.2248 28.6347 67.6142 28.3467 68.1155 28.144C68.6275 27.9413 69.2088 27.84 69.8595 27.84C70.4782 27.84 71.0755 27.9253 71.6515 28.096C72.2382 28.256 72.7982 28.5173 73.3315 28.88L72.4515 30.064C72.0248 29.7653 71.5875 29.5573 71.1395 29.44C70.7022 29.312 70.2595 29.248 69.8115 29.248C69.2995 29.248 68.8942 29.3333 68.5955 29.504C68.2968 29.664 68.1475 29.888 68.1475 30.176C68.1475 30.4213 68.2435 30.608 68.4355 30.736C68.6275 30.864 68.8835 30.96 69.2035 31.024C69.5235 31.088 69.8755 31.1467 70.2595 31.2C70.6435 31.2533 71.0222 31.3227 71.3955 31.408C71.7795 31.4933 72.1315 31.616 72.4515 31.776C72.7715 31.936 73.0275 32.16 73.2195 32.448C73.4115 32.736 73.5075 33.1147 73.5075 33.584C73.5075 34.0853 73.3475 34.5333 73.0275 34.928C72.7182 35.312 72.2915 35.616 71.7475 35.84C71.2035 36.0533 70.5955 36.16 69.9235 36.16Z" fill="#2E3192"/>
<path d="M79.5332 26.416C79.1706 26.416 78.8612 26.288 78.6052 26.032C78.3599 25.776 78.2373 25.472 78.2373 25.12C78.2373 24.768 78.3599 24.4693 78.6052 24.224C78.8612 23.968 79.1706 23.84 79.5332 23.84C79.8852 23.84 80.1839 23.968 80.4293 24.224C80.6853 24.4693 80.8132 24.768 80.8132 25.12C80.8132 25.472 80.6853 25.776 80.4293 26.032C80.1839 26.288 79.8852 26.416 79.5332 26.416ZM81.5813 36.16C80.6106 36.16 79.8746 35.9307 79.3733 35.472C78.8719 35.0133 78.6212 34.336 78.6212 33.44V29.424H75.7412V27.984H80.4293V33.248C80.4293 33.728 80.5413 34.0747 80.7653 34.288C80.9999 34.5013 81.3519 34.608 81.8213 34.608C82.0879 34.608 82.3492 34.5813 82.6052 34.528C82.8612 34.4747 83.1439 34.3893 83.4532 34.272V35.792C83.2079 35.888 82.9146 35.9733 82.5732 36.048C82.2319 36.1227 81.9013 36.16 81.5813 36.16Z" fill="#2E3192"/>
<path d="M89.079 39.504C88.5137 39.504 87.9537 39.4347 87.399 39.296C86.855 39.1573 86.3483 38.9653 85.879 38.72L86.503 37.392C86.9723 37.616 87.4097 37.7813 87.815 37.888C88.2203 38.0053 88.6203 38.064 89.015 38.064C90.3057 38.064 90.951 37.472 90.951 36.288V35.024C90.663 35.3547 90.3163 35.616 89.911 35.808C89.5163 35.9893 89.0897 36.08 88.631 36.08C87.9697 36.08 87.367 35.8987 86.823 35.536C86.2897 35.1627 85.863 34.6667 85.543 34.048C85.2337 33.4293 85.079 32.7413 85.079 31.984C85.079 31.2267 85.2443 30.544 85.575 29.936C85.9057 29.3173 86.3483 28.8267 86.903 28.464C87.4577 28.1013 88.071 27.92 88.743 27.92C89.1803 27.92 89.5857 28.0053 89.959 28.176C90.343 28.3467 90.679 28.592 90.967 28.912V27.984H92.743V36.288C92.743 37.3227 92.4283 38.1173 91.799 38.672C91.1803 39.2267 90.2737 39.504 89.079 39.504ZM89.143 34.592C89.5163 34.592 89.8523 34.5173 90.151 34.368C90.4603 34.2187 90.727 34.016 90.951 33.76V30.224C90.727 29.968 90.455 29.7707 90.135 29.632C89.8257 29.4827 89.495 29.408 89.143 29.408C88.695 29.408 88.3003 29.52 87.959 29.744C87.6177 29.9573 87.351 30.2613 87.159 30.656C86.967 31.04 86.871 31.488 86.871 32C86.871 32.4907 86.967 32.9333 87.159 33.328C87.351 33.7227 87.6177 34.032 87.959 34.256C88.3003 34.48 88.695 34.592 89.143 34.592Z" fill="#2E3192"/>
<path d="M95.2647 36V27.984H97.0727V29.184C97.6914 28.2987 98.5128 27.856 99.5368 27.856C100.091 27.856 100.577 27.9787 100.993 28.224C101.409 28.4587 101.734 28.7947 101.969 29.232C102.214 29.6587 102.337 30.1547 102.337 30.72V36H100.513V31.232C100.513 30.6453 100.353 30.1813 100.033 29.84C99.7128 29.488 99.2861 29.312 98.7527 29.312C98.4114 29.312 98.0967 29.3867 97.8087 29.536C97.5207 29.6853 97.2754 29.904 97.0727 30.192V36H95.2647Z" fill="#2E3192"/>
<path d="M108.299 36.16C107.552 36.16 106.858 36.064 106.218 35.872C105.589 35.6693 105.051 35.3813 104.603 35.008L105.482 33.808C106.037 34.16 106.533 34.4053 106.97 34.544C107.408 34.6827 107.845 34.752 108.283 34.752C108.869 34.752 109.333 34.656 109.674 34.464C110.026 34.272 110.202 34.0213 110.202 33.712C110.202 33.4667 110.106 33.2747 109.914 33.136C109.722 32.9973 109.472 32.896 109.162 32.832C108.853 32.768 108.506 32.7093 108.122 32.656C107.749 32.6027 107.371 32.5333 106.987 32.448C106.613 32.3627 106.267 32.2453 105.947 32.096C105.637 31.936 105.387 31.7173 105.195 31.44C105.003 31.152 104.907 30.7787 104.907 30.32C104.907 29.808 105.045 29.3707 105.323 29.008C105.6 28.6347 105.989 28.3467 106.491 28.144C107.003 27.9413 107.584 27.84 108.234 27.84C108.853 27.84 109.45 27.9253 110.026 28.096C110.613 28.256 111.173 28.5173 111.706 28.88L110.826 30.064C110.4 29.7653 109.963 29.5573 109.515 29.44C109.077 29.312 108.635 29.248 108.187 29.248C107.675 29.248 107.269 29.3333 106.97 29.504C106.672 29.664 106.522 29.888 106.522 30.176C106.522 30.4213 106.619 30.608 106.811 30.736C107.003 30.864 107.258 30.96 107.578 31.024C107.898 31.088 108.25 31.1467 108.634 31.2C109.018 31.2533 109.397 31.3227 109.771 31.408C110.155 31.4933 110.506 31.616 110.826 31.776C111.146 31.936 111.402 32.16 111.594 32.448C111.786 32.736 111.882 33.1147 111.882 33.584C111.882 34.0853 111.722 34.5333 111.402 34.928C111.093 35.312 110.666 35.616 110.122 35.84C109.578 36.0533 108.971 36.16 108.299 36.16Z" fill="#2E3192"/>
</svg>
